<?xml version="1.0" encoding="utf-8"?>
<!-- Generator: Adobe Illustrator 17.0.0, SVG Export Plug-In . SVG Version: 6.00 Build 0)  -->
<!DOCTYPE svg PUBLIC "-//W3C//DTD SVG 1.1//EN" "http://www.w3.org/Graphics/SVG/1.1/DTD/svg11.dtd">
<svg version="1.1" id="Layer_1" xmlns="http://www.w3.org/2000/svg" xmlns:xlink="http://www.w3.org/1999/xlink" x="0px" y="0px"
	 width="1920px" height="1080px" viewBox="0 0 1920 1080" enable-background="new 0 0 1920 1080" xml:space="preserve">
<rect fill="#CCCCCC" width="1478.871" height="813.125"/>
<g>
	<rect y="330.614" fill="#FFFF00" width="1478.871" height="125.357"/>
	<polygon points="0,455.971 64.372,330.614 90.63,330.614 30.492,455.971 	"/>
	<polygon points="99.382,455.971 163.754,330.614 190.012,330.614 129.874,455.971 	"/>
	<polygon points="195.094,455.971 259.466,330.614 285.723,330.614 225.586,455.971 	"/>
	<polygon points="288.546,455.971 352.919,330.614 379.176,330.614 319.039,455.971 	"/>
	<polygon points="387.928,455.971 452.301,330.614 478.558,330.614 418.421,455.971 	"/>
	<polygon points="483.64,455.971 548.012,330.614 574.27,330.614 514.132,455.971 	"/>
	<polygon points="579.916,455.971 644.289,330.614 670.546,330.614 610.408,455.971 	"/>
	<polygon points="679.298,455.971 743.671,330.614 769.928,330.614 709.79,455.971 	"/>
	<polygon points="775.01,455.971 839.382,330.614 865.639,330.614 805.502,455.971 	"/>
	<polygon points="865.639,455.971 930.012,330.614 956.269,330.614 896.132,455.971 	"/>
	<polygon points="965.021,455.971 1029.394,330.614 1055.651,330.614 995.513,455.971 	"/>
	<polygon points="1060.733,455.971 1125.105,330.614 1151.362,330.614 1091.225,455.971 	"/>
	<polygon points="1151.362,455.971 1215.735,330.614 1241.992,330.614 1181.855,455.971 	"/>
	<polygon points="1250.744,455.971 1315.117,330.614 1341.374,330.614 1281.237,455.971 	"/>
	<polygon points="1346.456,455.971 1410.828,330.614 1437.086,330.614 1376.948,455.971 	"/>
</g>
<g>
	<rect x="72.278" y="712.331" fill="#FF0000" width="125.357" height="60.984"/>
	<rect x="89.218" y="697.085" fill="#FF0000" width="31.622" height="30.492"/>
	<rect x="151.332" y="695.391" fill="#FF0000" width="31.622" height="30.492"/>
</g>
<g>
	<rect x="573.705" y="712.331" fill="#FF0000" width="125.357" height="60.984"/>
	<rect x="590.645" y="697.085" fill="#FF0000" width="31.622" height="30.492"/>
	<rect x="652.759" y="695.391" fill="#FF0000" width="31.622" height="30.492"/>
</g>
<g>
	<rect x="197.635" y="712.331" fill="#0000FF" width="125.357" height="60.984"/>
	<rect x="214.575" y="697.085" fill="#0000FF" width="31.622" height="30.492"/>
	<rect x="276.688" y="695.391" fill="#0000FF" width="31.622" height="30.492"/>
</g>
<g>
	<rect x="699.062" y="712.331" fill="#0000FF" width="125.357" height="60.984"/>
	<rect x="716.002" y="697.085" fill="#0000FF" width="31.622" height="30.492"/>
	<rect x="778.115" y="695.391" fill="#0000FF" width="31.622" height="30.492"/>
</g>
<g>
	<rect x="72.278" y="651.347" fill="#0000FF" width="125.357" height="60.984"/>
	<rect x="89.218" y="636.101" fill="#0000FF" width="31.622" height="30.492"/>
	<rect x="151.332" y="634.407" fill="#0000FF" width="31.622" height="30.492"/>
</g>
<g>
	<rect x="322.991" y="712.331" fill="#FFFF00" width="125.357" height="60.984"/>
	<rect x="339.931" y="697.085" fill="#FFFF00" width="31.622" height="30.492"/>
	<rect x="402.045" y="695.391" fill="#FFFF00" width="31.622" height="30.492"/>
</g>
<g>
	<rect x="197.635" y="651.347" fill="#FFFF00" width="125.357" height="60.984"/>
	<rect x="214.575" y="636.101" fill="#FFFF00" width="31.622" height="30.492"/>
	<rect x="276.688" y="634.407" fill="#FFFF00" width="31.622" height="30.492"/>
</g>
<g>
	<rect x="72.278" y="590.363" fill="#FFFF00" width="125.357" height="60.984"/>
	<rect x="89.218" y="575.116" fill="#FFFF00" width="31.622" height="30.492"/>
	<rect x="151.332" y="573.422" fill="#FFFF00" width="31.622" height="30.492"/>
</g>
<g>
	<rect x="448.348" y="712.331" fill="#00FF00" width="125.357" height="60.984"/>
	<rect x="465.288" y="697.085" fill="#00FF00" width="31.622" height="30.492"/>
	<rect x="527.402" y="695.391" fill="#00FF00" width="31.622" height="30.492"/>
</g>
<g>
	<rect x="322.991" y="651.347" fill="#00FF00" width="125.357" height="60.984"/>
	<rect x="339.931" y="636.101" fill="#00FF00" width="31.622" height="30.492"/>
	<rect x="402.045" y="634.407" fill="#00FF00" width="31.622" height="30.492"/>
</g>
<g>
	<rect x="197.635" y="590.363" fill="#00FF00" width="125.357" height="60.984"/>
	<rect x="214.575" y="575.116" fill="#00FF00" width="31.622" height="30.492"/>
	<rect x="276.688" y="573.422" fill="#00FF00" width="31.622" height="30.492"/>
</g>
<g>
	<rect x="72.278" y="529.378" fill="#00FF00" width="125.357" height="60.984"/>
	<rect x="89.218" y="514.132" fill="#00FF00" width="31.622" height="30.492"/>
	<rect x="151.332" y="512.438" fill="#00FF00" width="31.622" height="30.492"/>
</g>
<g>
	<rect x="72.278" y="467.829" fill="#FF0000" width="125.357" height="60.984"/>
	<rect x="89.218" y="452.583" fill="#FF0000" width="31.622" height="30.492"/>
	<rect x="151.332" y="450.889" fill="#FF0000" width="31.622" height="30.492"/>
</g>
<g>
	<rect x="72.278" y="406.845" fill="#0000FF" width="125.357" height="60.984"/>
	<rect x="89.218" y="391.599" fill="#0000FF" width="31.622" height="30.492"/>
	<rect x="151.332" y="389.905" fill="#0000FF" width="31.622" height="30.492"/>
</g>
<g>
	<rect x="72.278" y="345.86" fill="#FFFF00" width="125.357" height="60.984"/>
	<rect x="89.218" y="330.614" fill="#FFFF00" width="31.622" height="30.492"/>
	<rect x="151.332" y="328.92" fill="#FFFF00" width="31.622" height="30.492"/>
</g>
<g>
	<rect x="197.635" y="529.378" fill="#FF0000" width="125.357" height="60.984"/>
	<rect x="214.575" y="514.132" fill="#FF0000" width="31.622" height="30.492"/>
	<rect x="276.688" y="512.438" fill="#FF0000" width="31.622" height="30.492"/>
</g>
<g>
	<rect x="197.635" y="469.523" fill="#0000FF" width="125.357" height="60.984"/>
	<rect x="214.575" y="454.277" fill="#0000FF" width="31.622" height="30.492"/>
	<rect x="276.688" y="452.583" fill="#0000FF" width="31.622" height="30.492"/>
</g>
<g>
	<rect x="197.635" y="408.539" fill="#FFFF00" width="125.357" height="60.984"/>
	<rect x="214.575" y="393.293" fill="#FFFF00" width="31.622" height="30.492"/>
	<rect x="276.688" y="391.599" fill="#FFFF00" width="31.622" height="30.492"/>
</g>
<g>
	<rect x="699.062" y="653.041" fill="#FFFF00" width="125.357" height="60.984"/>
	<rect x="716.002" y="637.795" fill="#FFFF00" width="31.622" height="30.492"/>
	<rect x="778.115" y="636.101" fill="#FFFF00" width="31.622" height="30.492"/>
</g>
<g>
	<rect x="322.991" y="590.363" fill="#FF0000" width="125.357" height="60.984"/>
	<rect x="339.931" y="575.116" fill="#FF0000" width="31.622" height="30.492"/>
	<rect x="402.045" y="573.422" fill="#FF0000" width="31.622" height="30.492"/>
</g>
<g>
	<rect x="448.348" y="651.347" fill="#FF0000" width="125.357" height="60.984"/>
	<rect x="465.288" y="636.101" fill="#FF0000" width="31.622" height="30.492"/>
	<rect x="527.402" y="634.407" fill="#FF0000" width="31.622" height="30.492"/>
</g>
<g>
	<rect x="322.991" y="529.378" fill="#0000FF" width="125.357" height="60.984"/>
	<rect x="339.931" y="514.132" fill="#0000FF" width="31.622" height="30.492"/>
	<rect x="402.045" y="512.438" fill="#0000FF" width="31.622" height="30.492"/>
</g>
<g>
	<rect x="448.348" y="590.363" fill="#0000FF" width="125.357" height="60.984"/>
	<rect x="465.288" y="575.116" fill="#0000FF" width="31.622" height="30.492"/>
	<rect x="527.402" y="573.422" fill="#0000FF" width="31.622" height="30.492"/>
</g>
<g>
	<rect x="573.705" y="651.347" fill="#0000FF" width="125.357" height="60.984"/>
	<rect x="590.645" y="636.101" fill="#0000FF" width="31.622" height="30.492"/>
	<rect x="652.759" y="634.407" fill="#0000FF" width="31.622" height="30.492"/>
</g>
<g>
	<rect x="573.705" y="592.057" fill="#FFFF00" width="125.357" height="60.984"/>
	<rect x="590.645" y="576.81" fill="#FFFF00" width="31.622" height="30.492"/>
	<rect x="652.759" y="575.116" fill="#FFFF00" width="31.622" height="30.492"/>
</g>
<g>
	<rect x="448.348" y="529.378" fill="#FFFF00" width="125.357" height="60.984"/>
	<rect x="465.288" y="514.132" fill="#FFFF00" width="31.622" height="30.492"/>
	<rect x="527.402" y="512.438" fill="#FFFF00" width="31.622" height="30.492"/>
</g>
<g>
	<rect x="322.991" y="467.829" fill="#FFFF00" width="125.357" height="60.984"/>
	<rect x="339.931" y="452.583" fill="#FFFF00" width="31.622" height="30.492"/>
	<rect x="402.045" y="450.889" fill="#FFFF00" width="31.622" height="30.492"/>
</g>
<g>
	<rect x="72.278" y="284.876" fill="#00FF00" width="125.357" height="60.984"/>
	<rect x="89.218" y="269.63" fill="#00FF00" width="31.622" height="30.492"/>
	<rect x="151.332" y="267.936" fill="#00FF00" width="31.622" height="30.492"/>
</g>
<g>
	<path fill="#426DB5" d="M1274.01,571.498l-4.62,23.239l-14.178,24.168c0,0-6.65,8.857-17.684,7.021l13.508-57.059L1274.01,571.498z
		"/>
	<g id="cuffs_1_">
		<g>
			<path fill="#32558E" d="M1273.997,571.622c-0.291,1.709-5.683,2.528-12.043,1.828c-6.36-0.7-11.279-2.653-10.989-4.362
				c0.291-1.71,5.682-2.528,12.042-1.829C1269.368,567.961,1274.288,569.913,1273.997,571.622z"/>
		</g>
	</g>
	<g id="arm_2_">
		<g>
			
				<linearGradient id="SVGID_1_" gradientUnits="userSpaceOnUse" x1="1253.7908" y1="234.4999" x2="1233.9999" y2="228.4153" gradientTransform="matrix(1 0 0 -0.8627 19.54 765.2156)">
				<stop  offset="0" style="stop-color:#FFEF00"/>
				<stop  offset="1" style="stop-color:#E7D31B"/>
			</linearGradient>
			<path fill="url(#SVGID_1_)" d="M1271.008,571.88c0,0-8.779,2.577-16.862-2.014l1.173-10.521l17.531,2.222L1271.008,571.88z"/>
		</g>
	</g>
	<g>
		
			<linearGradient id="SVGID_2_" gradientUnits="userSpaceOnUse" x1="1261.9885" y1="251.5768" x2="1232.0516" y2="242.3727" gradientTransform="matrix(1 0 0 -0.8627 19.54 765.2156)">
			<stop  offset="0" style="stop-color:#FFEF00"/>
			<stop  offset="1" style="stop-color:#E7D31B"/>
		</linearGradient>
		<path fill="url(#SVGID_2_)" d="M1264.364,565.304c-8.568-1.008-14.568-7.817-13.4-15.208c0.646-4.096,3.359-7.508,7.105-9.567
			c0.206-0.02,1.968-0.363,2.884,0.108c2.88,1.481-0.474,5.106-1.798,8.169c-0.546,0.792-0.921,1.689-1.074,2.659
			c-0.612,3.869,2.528,7.434,7.014,7.961c0.064,0.008,0.129,0.013,0.194,0.018c0.065,0.009,0.129,0.02,0.192,0.027
			c4.486,0.527,8.616-2.182,9.228-6.05c0.154-0.97,0.071-1.922-0.21-2.811c-0.325-3.255-2.432-7.523,0.8-8.286
			c1.03-0.242,2.621,0.494,2.814,0.563c2.971,2.848,4.525,6.763,3.878,10.858C1280.824,561.135,1272.932,566.311,1264.364,565.304z"
			/>
	</g>
	<g>
		<path fill="#32558E" d="M1264.499,593.643l-13.297-6.14c-0.353-0.163-0.487-0.543-0.297-0.848c0.189-0.305,0.629-0.42,0.982-0.257
			l13.297,6.14c0.354,0.163,0.488,0.543,0.298,0.849C1265.292,593.692,1264.852,593.807,1264.499,593.643"/>
	</g>
</g>
<g id="g3415">
	
		<linearGradient id="rect3249_1_" gradientUnits="userSpaceOnUse" x1="1330.8687" y1="239.2994" x2="1308.5294" y2="239.2994" gradientTransform="matrix(1 0 0 -1 -114.2364 774.6437)">
		<stop  offset="0" style="stop-color:#FFEF00"/>
		<stop  offset="0.5689" style="stop-color:#E7D31B"/>
		<stop  offset="0.9515" style="stop-color:#E5BF21"/>
	</linearGradient>
	<rect id="rect3249" x="1191.499" y="530.728" fill="url(#rect3249_1_)" width="28.046" height="9.233"/>
	
		<linearGradient id="SVGID_3_" gradientUnits="userSpaceOnUse" x1="1217.4169" y1="519.5212" x2="1166.0315" y2="500.8184" gradientTransform="matrix(1 0 0 1 19.54 57.34)">
		<stop  offset="0" style="stop-color:#FFEF00"/>
		<stop  offset="0.5689" style="stop-color:#E7D31B"/>
		<stop  offset="0.9515" style="stop-color:#E5BF21"/>
	</linearGradient>
	<path fill="url(#SVGID_3_)" d="M1236.892,549.759h-0.023v-0.388c-2.629-8.427-9.757-9.364-17.418-9.406h-5.396h-0.586h-16.216
		h-0.106h-5.985c-7.315,0.124-13.637,1.655-15.958,8.855v1.653h-0.059v30.866h0.059v0.973c2.321,7.2,8.642,8.731,15.958,8.855h5.985
		h0.106h16.802c0.049-0.077,0.092-0.16,0.139-0.237h5.257c7.661-0.04,14.789-0.925,17.418-8.878v-0.236h0.023V549.759
		L1236.892,549.759z"/>
	
		<linearGradient id="rect3253_1_" gradientUnits="userSpaceOnUse" x1="1336.7888" y1="172.7171" x2="1300.879" y2="185.7872" gradientTransform="matrix(1 0 0 -1 -112.8077 773.217)">
		<stop  offset="0" style="stop-color:#FFEF00"/>
		<stop  offset="0.5689" style="stop-color:#E7D31B"/>
		<stop  offset="0.9515" style="stop-color:#E5BF21"/>
	</linearGradient>
	<rect id="rect3253" x="1187.135" y="590.191" fill="url(#rect3253_1_)" width="37.782" height="7.548"/>
</g>
<g>
	<circle fill="#3B3939" cx="1195.478" cy="560.479" r="4.102"/>
	<circle fill="#3B3939" cx="1216.796" cy="560.479" r="4.102"/>
	<path fill="#3B3939" d="M1214.778,573.382c-1.404,0.656-2.798,1.253-4.25,1.684c-1.453,0.431-2.96,0.698-4.619,0.698
		c-1.22,0-2.523-0.145-3.95-0.487c-1.426-0.343-2.975-0.883-4.677-1.679c-0.603-0.282-1.321-0.022-1.603,0.581
		c-0.282,0.604-0.022,1.321,0.581,1.603c1.831,0.856,3.534,1.455,5.136,1.84c1.601,0.385,3.101,0.554,4.512,0.554
		c1.921,0,3.676-0.314,5.306-0.798c1.629-0.484,3.135-1.134,4.584-1.811c0.604-0.282,0.864-0.999,0.583-1.603
		C1216.099,573.362,1215.382,573.101,1214.778,573.382z"/>
</g>
<linearGradient id="SVGID_4_" gradientUnits="userSpaceOnUse" x1="1186.839" y1="718.0142" x2="1186.839" y2="618.4881" gradientTransform="matrix(1 0 0 1 19.54 57.34)">
	<stop  offset="0" style="stop-color:#446DB5"/>
	<stop  offset="0.6061" style="stop-color:#446DB5"/>
	<stop  offset="0.7636" style="stop-color:#628DAD"/>
	<stop  offset="0.903" style="stop-color:#6795B6"/>
</linearGradient>
<path fill="url(#SVGID_4_)" d="M1238.452,675.828h-30.085h-50.283v32.333v7.504v35.894v0.752v23.043h46.308v-23.043v-0.752v-34.58
	c0.594,0.183,1.226,0.284,1.886,0.284c0.735,0,1.437-0.129,2.089-0.353v34.649v0.752v23.043h46.308v-23.043v-0.752v-35.894v-10.532
	v-29.305H1238.452L1238.452,675.828z"/>
<path fill="#0000FF" d="M1255.57,675.828l-15.015-73.342c0-2.986-2.683-5.443-6.136-5.772l-0.008-0.04l-0.04,0.034
	c-0.244-0.022-0.491-0.034-0.743-0.034h-55.109c-0.12,0-0.236,0.01-0.354,0.015l-0.017-0.015l-0.003,0.016
	c-3.649,0.164-6.551,2.693-6.551,5.797l-14.545,73.342L1255.57,675.828L1255.57,675.828z"/>
<path fill="#426DB5" d="M1158.203,668.898l13.508-66.141c-11.033-2.129-17.684,8.138-17.684,8.138l-14.178,28.015l-4.62,26.938
	L1158.203,668.898z"/>
<g id="cuffs_2_">
	<g>
		<path fill="#32558E" d="M1147.284,663.585c-6.36-0.811-11.753,0.138-12.043,2.12c-0.291,1.981,4.63,4.245,10.989,5.056
			c6.36,0.811,11.752-0.138,12.043-2.12C1158.563,666.659,1153.644,664.396,1147.284,663.585z"/>
	</g>
</g>
<g id="arm_3_">
	<g>
		
			<linearGradient id="SVGID_5_" gradientUnits="userSpaceOnUse" x1="1135.859" y1="617.7825" x2="1117.4436" y2="612.1207" gradientTransform="matrix(1 0 0 1 19.54 57.34)">
			<stop  offset="0" style="stop-color:#FFEF00"/>
			<stop  offset="1" style="stop-color:#E7D31B"/>
		</linearGradient>
		<path fill="url(#SVGID_5_)" d="M1138.23,665.405l-1.842,11.954l17.531,2.576l1.173-12.196
			C1147.009,662.418,1138.23,665.405,1138.23,665.405z"/>
	</g>
</g>
<g>
	
		<linearGradient id="SVGID_6_" gradientUnits="userSpaceOnUse" x1="1138.4991" y1="634.7969" x2="1108.5631" y2="625.5931" gradientTransform="matrix(1 0 0 1 19.54 57.34)">
		<stop  offset="0" style="stop-color:#FFEF00"/>
		<stop  offset="1" style="stop-color:#E7D31B"/>
	</linearGradient>
	<path fill="url(#SVGID_6_)" d="M1144.875,673.028c8.569,1.168,14.569,9.061,13.4,17.629c-0.646,4.748-3.359,8.703-7.105,11.09
		c-0.206,0.024-1.968,0.42-2.884-0.126c-2.88-1.717,0.475-5.919,1.798-9.469c0.546-0.917,0.921-1.958,1.074-3.082
		c0.612-4.485-2.528-8.616-7.014-9.228c-0.064-0.009-0.129-0.014-0.194-0.021c-0.064-0.01-0.129-0.023-0.192-0.031
		c-4.486-0.612-8.616,2.529-9.228,7.013c-0.154,1.125-0.071,2.229,0.21,3.259c0.325,3.774,2.432,8.721-0.8,9.605
		c-1.03,0.28-2.621-0.573-2.813-0.653c-2.971-3.301-4.525-7.839-3.878-12.585C1128.414,677.861,1136.306,671.861,1144.875,673.028z"
		/>
</g>
<g>
	<path fill="#32558E" d="M1158.844,645.635l-14.436-4.37c-0.384-0.116-0.789,0.101-0.906,0.485c-0.116,0.384,0.101,0.79,0.485,0.906
		l14.436,4.37c0.384,0.116,0.79-0.101,0.906-0.485S1159.228,645.751,1158.844,645.635"/>
</g>
<rect x="1158.084" y="760.769" fill="#32558E" width="46.308" height="3.192"/>
<rect x="1208.367" y="760.769" fill="#32558E" width="46.308" height="3.192"/>
<linearGradient id="SVGID_7_" gradientUnits="userSpaceOnUse" x1="1161.6561" y1="657.3785" x2="1161.6561" y2="673.1292" gradientTransform="matrix(1 0 0 1 19.54 57.34)">
	<stop  offset="0" style="stop-color:#000000;stop-opacity:0.57"/>
	<stop  offset="1" style="stop-color:#000000;stop-opacity:0"/>
</linearGradient>
<rect x="1158" y="714.718" fill="url(#SVGID_7_)" width="46.391" height="15.751"/>
<linearGradient id="SVGID_8_" gradientUnits="userSpaceOnUse" x1="1211.939" y1="657.3785" x2="1211.939" y2="673.1292" gradientTransform="matrix(1 0 0 1 19.54 57.34)">
	<stop  offset="0" style="stop-color:#000000;stop-opacity:0.57"/>
	<stop  offset="1" style="stop-color:#000000;stop-opacity:0"/>
</linearGradient>
<rect x="1208.283" y="714.718" fill="url(#SVGID_8_)" width="46.391" height="15.751"/>
<path fill="#32558E" d="M1250.65,675.828h-88.361H1158v12.725h4.288h38.951v29.677c0,2.853,2.342,5.164,5.23,5.164
	c2.889,0,5.232-2.311,5.232-5.164v-29.677h38.95h4.253v-12.725H1250.65z"/>
<linearGradient id="SVGID_9_" gradientUnits="userSpaceOnUse" x1="671.8475" y1="600.2816" x2="671.8475" y2="616.0317" gradientTransform="matrix(-1 0 0 -1 1903.3682 1361.0509)">
	<stop  offset="0" style="stop-color:#FFFFFF;stop-opacity:0.57"/>
	<stop  offset="0.0899" style="stop-color:#E0E1E2;stop-opacity:0.5187"/>
	<stop  offset="0.2821" style="stop-color:#A9ABAD;stop-opacity:0.4092"/>
	<stop  offset="0.4649" style="stop-color:#7F8083;stop-opacity:0.305"/>
	<stop  offset="0.6331" style="stop-color:#5D5E60;stop-opacity:0.2091"/>
	<stop  offset="0.7835" style="stop-color:#414042;stop-opacity:0.1234"/>
	<stop  offset="0.9109" style="stop-color:#19191A;stop-opacity:0.0508"/>
	<stop  offset="1" style="stop-color:#000000;stop-opacity:0"/>
</linearGradient>
<rect x="1208.367" y="745.019" opacity="0.45" fill="url(#SVGID_9_)" enable-background="new    " width="46.308" height="15.75"/>
<linearGradient id="SVGID_10_" gradientUnits="userSpaceOnUse" x1="722.1303" y1="600.2816" x2="722.1303" y2="616.0317" gradientTransform="matrix(-1 0 0 -1 1903.3682 1361.0509)">
	<stop  offset="0" style="stop-color:#FFFFFF;stop-opacity:0.57"/>
	<stop  offset="0.0899" style="stop-color:#E0E1E2;stop-opacity:0.5187"/>
	<stop  offset="0.2821" style="stop-color:#A9ABAD;stop-opacity:0.4092"/>
	<stop  offset="0.4649" style="stop-color:#7F8083;stop-opacity:0.305"/>
	<stop  offset="0.6331" style="stop-color:#5D5E60;stop-opacity:0.2091"/>
	<stop  offset="0.7835" style="stop-color:#414042;stop-opacity:0.1234"/>
	<stop  offset="0.9109" style="stop-color:#19191A;stop-opacity:0.0508"/>
	<stop  offset="1" style="stop-color:#000000;stop-opacity:0"/>
</linearGradient>
<rect x="1158.084" y="745.019" opacity="0.45" fill="url(#SVGID_10_)" enable-background="new    " width="46.308" height="15.75"/>
<g>
	
		<rect x="1235.176" y="519.472" transform="matrix(0.9337 0.358 -0.358 0.9337 276.881 -420.0213)" fill="#00FF00" width="75.348" height="36.656"/>
	
		<rect x="1253.111" y="505.083" transform="matrix(0.9337 0.358 -0.358 0.9337 267.7711 -417.9182)" fill="#00FF00" width="19.007" height="18.328"/>
	
		<rect x="1288.336" y="517.498" transform="matrix(0.9337 0.358 -0.358 0.9337 274.5498 -429.7055)" fill="#00FF00" width="19.007" height="18.328"/>
</g>
<g>
	<path d="M172.292,170.344l-13.137,13.194h-36.249l-13.136-13.116v-50.591h-4.939v-18.57h32.496v18.57h-4.938v42.576l2.667,2.563
		h12.05l2.568-2.563v-42.576h-4.939v-18.57h32.496v18.57h-4.939V170.344z"/>
	<path d="M232.443,183.538l-22.125-36.841v18.273h4.938v18.569H182.76v-18.569h4.939v-45.139h-4.939v-18.57h26.768l22.619,37.731
		v-19.162h-4.939v-18.57h32.496v18.57h-4.939v45.139h4.939v18.569H232.443z"/>
	<path d="M265.233,101.261h50.966l13.137,13.22v55.935l-13.137,13.121h-50.966v-18.569h4.939v-45.139h-4.939V101.261z
		 M292.791,164.969h11.26l2.667-2.563v-39.916l-2.667-2.66h-11.26V164.969z"/>
	<path d="M362.918,164.969h14.421v-3.26h18.569v21.829H335.36v-18.569h4.939v-45.139h-4.939v-18.57h60.547v21.73h-18.569v-3.161
		h-14.421v13.235h3.358v-3.161h18.47v24.989h-18.47v-3.26h-3.358V164.969z"/>
	<path d="M428.995,164.969h4.938v18.569h-32.496v-18.569h4.939v-45.139h-4.939v-18.57h50.966l13.137,13.203v20.986l-5.433,5.419
		l5.433,5.334v18.766h4.939v18.569h-27.557v-30.62l-2.667-2.667h-11.26V164.969z M428.995,131.683h11.26l2.667-2.645v-6.562
		l-2.667-2.645h-11.26V131.683z"/>
	<path d="M566.68,132.868h-22.618v-10.391l-2.568-2.647h-12.05l-2.667,2.66v39.916l2.667,2.563h12.05l2.568-2.568v-9.877h22.618
		v17.877l-13.135,13.137h-36.249l-13.137-13.121v-55.935l13.137-13.22h36.249l13.135,13.194V132.868z"/>
	<path d="M572.707,114.481l13.135-13.22h36.249l13.137,13.22v55.935l-13.137,13.121h-36.249l-13.135-13.121V114.481z
		 M612.611,122.491l-2.569-2.66h-12.05l-2.667,2.66v39.916l2.667,2.563h12.05l2.569-2.563V122.491z"/>
	<path d="M690.934,183.538l-22.126-36.841v18.273h4.94v18.569h-32.496v-18.569h4.938v-45.139h-4.938v-18.57h26.767l22.618,37.731
		v-19.162h-4.938v-18.57h32.496v18.57h-4.938v45.139h4.938v18.569H690.934z"/>
	<path d="M761.157,151.832h-24.198l-13.135-13.11v-24.251l13.135-13.21h36.248l13.137,13.191v16.145h-22.618v-8.124l-2.569-2.642
		h-12.05l-2.667,2.647v8.236l2.667,2.55h24.1l13.137,13.235v23.902l-13.137,13.137h-36.248l-13.135-13.137v-15.804h22.617v7.705
		l2.667,2.667h12.05l2.569-2.568v-7.902L761.157,151.832z"/>
	<path d="M861.409,124.67h-18.47v-4.84h-4.938v45.139h4.938v18.569h-32.593v-18.569h5.037v-45.139h-5.037v4.84h-18.47v-23.409
		h69.534V124.67z"/>
	<path d="M893.114,164.969h4.94v18.569h-32.496v-18.569h4.938v-45.139h-4.938v-18.57h50.966l13.137,13.203v20.986l-5.433,5.419
		l5.433,5.334v18.766h4.938v18.569h-27.557v-30.62l-2.667-2.667h-11.261V164.969z M893.114,131.683h11.261l2.667-2.645v-6.562
		l-2.667-2.645h-11.261V131.683z"/>
	<path d="M1007.493,170.344l-13.137,13.194h-36.249l-13.137-13.116v-50.591h-4.938v-18.57h32.496v18.57h-4.94v42.576l2.668,2.563
		h12.05l2.567-2.563v-42.576h-4.938v-18.57h32.496v18.57h-4.938V170.344z"/>
	<path d="M1080.482,132.868h-22.618v-10.391l-2.569-2.647h-12.05l-2.667,2.66v39.916l2.667,2.563h12.05l2.569-2.568v-9.877h22.618
		v17.877l-13.137,13.137h-36.249l-13.135-13.121v-55.935l13.135-13.22h36.249l13.137,13.194V132.868z"/>
	<path d="M1156.04,124.67h-18.47v-4.84h-4.938v45.139h4.938v18.569h-32.593v-18.569h5.037v-45.139h-5.037v4.84h-18.47v-23.409
		h69.534V124.67z"/>
	<path d="M1192.684,183.538h-32.496v-18.569h4.938v-45.139h-4.938v-18.57h32.496v18.57h-4.94v45.139h4.94V183.538z"/>
	<path d="M1198.214,114.481l13.135-13.22h36.249l13.137,13.22v55.935l-13.137,13.121h-36.249l-13.135-13.121V114.481z
		 M1238.118,122.491l-2.569-2.66h-12.05l-2.667,2.66v39.916l2.667,2.563h12.05l2.569-2.563V122.491z"/>
	<path d="M1316.443,183.538l-22.126-36.841v18.273h4.94v18.569h-32.495v-18.569h4.938v-45.139h-4.938v-18.57h26.767l22.618,37.731
		v-19.162h-4.938v-18.57h32.495v18.57h-4.938v45.139h4.938v18.569H1316.443z"/>
</g>
<g>
	<path d="M1089.349,222.03h-3.719v-1.692l-0.448-0.443h-1.972l-0.447,0.446v6.548l0.447,0.447h1.972l0.448-0.447v-1.626h3.719v2.947
		l-2.174,2.175h-5.957l-2.175-2.172v-9.195l2.175-2.172h5.957l2.174,2.167V222.03z"/>
	<path d="M1097.643,227.337v-2.256h-2.662v2.256h0.812v3.049h-5.347v-3.049h0.814v-7.44h-0.814v-3.05h5.347v3.05h-0.812v1.85h2.662
		v-1.85h-0.832v-3.05h5.367v3.05h-0.814v7.44h0.814v3.049h-5.367v-3.049H1097.643z"/>
	<path d="M1107.85,227.337h2.377v-0.549h3.051v3.598h-9.962v-3.049h0.814v-7.44h-0.814v-3.05h9.962v3.598h-3.051v-0.548h-2.377
		v2.195h0.548v-0.529h3.051v4.127h-3.051v-0.549h-0.548V227.337z"/>
	<path d="M1124.72,222.03h-3.719v-1.692l-0.448-0.443h-1.972l-0.447,0.446v6.548l0.447,0.447h1.972l0.448-0.447v-1.626h3.719v2.947
		l-2.174,2.175h-5.957l-2.175-2.172v-9.195l2.175-2.172h5.957l2.174,2.167V222.03z"/>
	<path d="M1130.352,227.337h0.812v3.049h-5.347v-3.049h0.814v-7.44h-0.814v-3.05h5.347v3.05h-0.812v1.931l1.931-1.931h-0.346v-3.05
		h6.443v3.05h-1.117l-3.681,3.669l3.782,3.771h1.016v3.049h-6.443v-3.049h0.366l-1.3-1.301l-0.65,0.63V227.337z"/>
	<path d="M1155.863,224.246v3.964l-2.156,2.175h-8.396v-3.049h0.814v-7.44h-0.814v-3.05h8.396l2.156,2.169v3.465l-0.895,0.892
		L1155.863,224.246z M1152.142,220.339l-0.427-0.443h-1.869v1.951h1.869l0.427-0.443V220.339z M1152.142,225.344l-0.427-0.447
		h-1.869v2.44h1.869l0.427-0.447V225.344z"/>
	<path d="M1167.388,216.847v3.05h-0.692l2.988,7.44h0.814v3.049h-5.224v-3.049h0.468l-0.203-0.63h-3.598l-0.223,0.63h0.447v3.049
		h-5.185v-3.049h0.814l2.988-7.44h-0.589v-3.05H1167.388z M1162.855,224.104h1.747l-0.873-2.114L1162.855,224.104z"/>
	<path d="M1181.638,222.03h-3.719v-1.692l-0.448-0.443h-1.972l-0.447,0.446v6.548l0.447,0.447h1.972l0.448-0.447v-1.626h3.719v2.947
		l-2.174,2.175h-5.957l-2.175-2.172v-9.195l2.175-2.172h5.957l2.174,2.167V222.03z"/>
	<path d="M1187.27,227.337h0.812v3.049h-5.347v-3.049h0.814v-7.44h-0.814v-3.05h5.347v3.05h-0.812v1.931l1.931-1.931h-0.346v-3.05
		h6.443v3.05h-1.117l-3.681,3.669l3.782,3.771h1.016v3.049h-6.443v-3.049h0.366l-1.3-1.301l-0.65,0.63V227.337z"/>
	<path d="M1206.764,219.896v7.44h2.438v-0.813h3.049v3.862h-10.022v-3.049h0.814v-7.44h-0.814v-3.05h5.347v3.05H1206.764z"/>
	<path d="M1223.636,216.847v3.05h-0.692l2.988,7.44h0.814v3.049h-5.224v-3.049h0.468l-0.203-0.63h-3.598l-0.223,0.63h0.447v3.049
		h-5.185v-3.049h0.814l2.988-7.44h-0.589v-3.05H1223.636z M1219.103,224.104h1.747l-0.873-2.114L1219.103,224.104z"/>
	<path d="M1239.044,220.729h-3.049v-0.813l-0.834-0.02v7.44h0.834v3.049h-5.367v-3.049h0.812v-7.44h-0.812v0.833h-3.051v-3.883
		h11.466V220.729z"/>
	<path d="M1244.391,227.337h2.377v-0.549h3.051v3.598h-9.962v-3.049h0.814v-7.44h-0.814v-3.05h9.962v3.598h-3.051v-0.548h-2.377
		v2.195h0.547v-0.529h3.051v4.127h-3.051v-0.549h-0.547V227.337z"/>
	<path d="M1255.49,227.337h0.812v3.049h-5.347v-3.049h0.814v-7.44h-0.814v-3.05h8.396l2.156,2.169v3.465l-0.895,0.892l0.895,0.874
		v3.09h0.812v3.049h-4.533v-5.042l-0.427-0.447h-1.869V227.337z M1255.49,221.848h1.869l0.427-0.443v-1.066l-0.427-0.443h-1.869
		V221.848z"/>
</g>
</svg>
