<?xml version="1.0" encoding="utf-8"?>
<!-- Generator: Adobe Illustrator 17.0.0, SVG Export Plug-In . SVG Version: 6.00 Build 0)  -->
<!DOCTYPE svg PUBLIC "-//W3C//DTD SVG 1.1//EN" "http://www.w3.org/Graphics/SVG/1.1/DTD/svg11.dtd">
<svg version="1.1" xmlns="http://www.w3.org/2000/svg" xmlns:xlink="http://www.w3.org/1999/xlink" x="0px" y="0px" width="873px"
	 height="480px" viewBox="0 0 873 480" enable-background="new 0 0 873 480" xml:space="preserve">
<g id="Layer_1">
	<rect fill="#E6E6E6" width="873" height="480"/>
</g>
<g id="Layer_4">
	<g>
		<rect y="195.167" fill="#FFFF00" width="873" height="74"/>
		<polygon points="0,269.167 38,195.167 53.5,195.167 18,269.167 		"/>
		<polygon points="58.667,269.167 96.667,195.167 112.167,195.167 76.667,269.167 		"/>
		<polygon points="115.167,269.167 153.167,195.167 168.667,195.167 133.167,269.167 		"/>
		<polygon points="170.333,269.167 208.333,195.167 223.833,195.167 188.333,269.167 		"/>
		<polygon points="229,269.167 267,195.167 282.5,195.167 247,269.167 		"/>
		<polygon points="285.5,269.167 323.5,195.167 339,195.167 303.5,269.167 		"/>
		<polygon points="342.333,269.167 380.333,195.167 395.833,195.167 360.333,269.167 		"/>
		<polygon points="401,269.167 439,195.167 454.5,195.167 419,269.167 		"/>
		<polygon points="457.5,269.167 495.5,195.167 511,195.167 475.5,269.167 		"/>
		<polygon points="511,269.167 549,195.167 564.5,195.167 529,269.167 		"/>
		<polygon points="569.667,269.167 607.667,195.167 623.167,195.167 587.667,269.167 		"/>
		<polygon points="626.167,269.167 664.167,195.167 679.667,195.167 644.167,269.167 		"/>
		<polygon points="679.667,269.167 717.667,195.167 733.167,195.167 697.667,269.167 		"/>
		<polygon points="738.333,269.167 776.333,195.167 791.833,195.167 756.333,269.167 		"/>
		<polygon points="794.833,269.167 832.833,195.167 848.333,195.167 812.833,269.167 		"/>
	</g>
</g>
<g id="Layer_2">
	<g>
		<rect x="42.667" y="420.5" fill="#FF0000" width="74" height="36"/>
		<rect x="52.667" y="411.5" fill="#FF0000" width="18.667" height="18"/>
		<rect x="89.333" y="410.5" fill="#FF0000" width="18.667" height="18"/>
	</g>
	<g>
		<rect x="338.667" y="420.5" fill="#FF0000" width="74" height="36"/>
		<rect x="348.667" y="411.5" fill="#FF0000" width="18.667" height="18"/>
		<rect x="385.333" y="410.5" fill="#FF0000" width="18.667" height="18"/>
	</g>
	<g>
		<rect x="116.667" y="420.5" fill="#0000FF" width="74" height="36"/>
		<rect x="126.667" y="411.5" fill="#0000FF" width="18.667" height="18"/>
		<rect x="163.333" y="410.5" fill="#0000FF" width="18.667" height="18"/>
	</g>
	<g>
		<rect x="412.667" y="420.5" fill="#0000FF" width="74" height="36"/>
		<rect x="422.667" y="411.5" fill="#0000FF" width="18.667" height="18"/>
		<rect x="459.333" y="410.5" fill="#0000FF" width="18.667" height="18"/>
	</g>
	<g>
		<rect x="42.667" y="384.5" fill="#0000FF" width="74" height="36"/>
		<rect x="52.667" y="375.5" fill="#0000FF" width="18.667" height="18"/>
		<rect x="89.333" y="374.5" fill="#0000FF" width="18.667" height="18"/>
	</g>
	<g>
		<rect x="190.667" y="420.5" fill="#FFFF00" width="74" height="36"/>
		<rect x="200.667" y="411.5" fill="#FFFF00" width="18.667" height="18"/>
		<rect x="237.333" y="410.5" fill="#FFFF00" width="18.667" height="18"/>
	</g>
	<g>
		<rect x="116.667" y="384.5" fill="#FFFF00" width="74" height="36"/>
		<rect x="126.667" y="375.5" fill="#FFFF00" width="18.667" height="18"/>
		<rect x="163.333" y="374.5" fill="#FFFF00" width="18.667" height="18"/>
	</g>
	<g>
		<rect x="42.667" y="348.5" fill="#FFFF00" width="74" height="36"/>
		<rect x="52.667" y="339.5" fill="#FFFF00" width="18.667" height="18"/>
		<rect x="89.333" y="338.5" fill="#FFFF00" width="18.667" height="18"/>
	</g>
	<g>
		<rect x="264.667" y="420.5" fill="#00FF00" width="74" height="36"/>
		<rect x="274.667" y="411.5" fill="#00FF00" width="18.667" height="18"/>
		<rect x="311.333" y="410.5" fill="#00FF00" width="18.667" height="18"/>
	</g>
	<g>
		<rect x="190.667" y="384.5" fill="#00FF00" width="74" height="36"/>
		<rect x="200.667" y="375.5" fill="#00FF00" width="18.667" height="18"/>
		<rect x="237.333" y="374.5" fill="#00FF00" width="18.667" height="18"/>
	</g>
	<g>
		<rect x="116.667" y="348.5" fill="#00FF00" width="74" height="36"/>
		<rect x="126.667" y="339.5" fill="#00FF00" width="18.667" height="18"/>
		<rect x="163.333" y="338.5" fill="#00FF00" width="18.667" height="18"/>
	</g>
	<g>
		<rect x="42.667" y="312.5" fill="#00FF00" width="74" height="36"/>
		<rect x="52.667" y="303.5" fill="#00FF00" width="18.667" height="18"/>
		<rect x="89.333" y="302.5" fill="#00FF00" width="18.667" height="18"/>
	</g>
	<g>
		<rect x="42.667" y="276.167" fill="#FF0000" width="74" height="36"/>
		<rect x="52.667" y="267.167" fill="#FF0000" width="18.667" height="18"/>
		<rect x="89.333" y="266.167" fill="#FF0000" width="18.667" height="18"/>
	</g>
	<g>
		<rect x="42.667" y="240.167" fill="#0000FF" width="74" height="36"/>
		<rect x="52.667" y="231.167" fill="#0000FF" width="18.667" height="18"/>
		<rect x="89.333" y="230.167" fill="#0000FF" width="18.667" height="18"/>
	</g>
	<g>
		<rect x="42.667" y="204.167" fill="#FFFF00" width="74" height="36"/>
		<rect x="52.667" y="195.167" fill="#FFFF00" width="18.667" height="18"/>
		<rect x="89.333" y="194.167" fill="#FFFF00" width="18.667" height="18"/>
	</g>
	<g>
		<rect x="116.667" y="312.5" fill="#FF0000" width="74" height="36"/>
		<rect x="126.667" y="303.5" fill="#FF0000" width="18.667" height="18"/>
		<rect x="163.333" y="302.5" fill="#FF0000" width="18.667" height="18"/>
	</g>
	<g>
		<rect x="116.667" y="277.167" fill="#0000FF" width="74" height="36"/>
		<rect x="126.667" y="268.167" fill="#0000FF" width="18.667" height="18"/>
		<rect x="163.333" y="267.167" fill="#0000FF" width="18.667" height="18"/>
	</g>
	<g>
		<rect x="116.667" y="241.167" fill="#FFFF00" width="74" height="36"/>
		<rect x="126.667" y="232.167" fill="#FFFF00" width="18.667" height="18"/>
		<rect x="163.333" y="231.167" fill="#FFFF00" width="18.667" height="18"/>
	</g>
	<g>
		<rect x="412.667" y="385.5" fill="#FFFF00" width="74" height="36"/>
		<rect x="422.667" y="376.5" fill="#FFFF00" width="18.667" height="18"/>
		<rect x="459.333" y="375.5" fill="#FFFF00" width="18.667" height="18"/>
	</g>
	<g>
		<rect x="190.667" y="348.5" fill="#FF0000" width="74" height="36"/>
		<rect x="200.667" y="339.5" fill="#FF0000" width="18.667" height="18"/>
		<rect x="237.333" y="338.5" fill="#FF0000" width="18.667" height="18"/>
	</g>
	<g>
		<rect x="264.667" y="384.5" fill="#FF0000" width="74" height="36"/>
		<rect x="274.667" y="375.5" fill="#FF0000" width="18.667" height="18"/>
		<rect x="311.333" y="374.5" fill="#FF0000" width="18.667" height="18"/>
	</g>
	<g>
		<rect x="190.667" y="312.5" fill="#0000FF" width="74" height="36"/>
		<rect x="200.667" y="303.5" fill="#0000FF" width="18.667" height="18"/>
		<rect x="237.333" y="302.5" fill="#0000FF" width="18.667" height="18"/>
	</g>
	<g>
		<rect x="264.667" y="348.5" fill="#0000FF" width="74" height="36"/>
		<rect x="274.667" y="339.5" fill="#0000FF" width="18.667" height="18"/>
		<rect x="311.333" y="338.5" fill="#0000FF" width="18.667" height="18"/>
	</g>
	<g>
		<rect x="338.667" y="384.5" fill="#0000FF" width="74" height="36"/>
		<rect x="348.667" y="375.5" fill="#0000FF" width="18.667" height="18"/>
		<rect x="385.333" y="374.5" fill="#0000FF" width="18.667" height="18"/>
	</g>
	<g>
		<rect x="338.667" y="349.5" fill="#FFFF00" width="74" height="36"/>
		<rect x="348.667" y="340.5" fill="#FFFF00" width="18.667" height="18"/>
		<rect x="385.333" y="339.5" fill="#FFFF00" width="18.667" height="18"/>
	</g>
	<g>
		<rect x="264.667" y="312.5" fill="#FFFF00" width="74" height="36"/>
		<rect x="274.667" y="303.5" fill="#FFFF00" width="18.667" height="18"/>
		<rect x="311.333" y="302.5" fill="#FFFF00" width="18.667" height="18"/>
	</g>
	<g>
		<rect x="190.667" y="276.167" fill="#FFFF00" width="74" height="36"/>
		<rect x="200.667" y="267.167" fill="#FFFF00" width="18.667" height="18"/>
		<rect x="237.333" y="266.167" fill="#FFFF00" width="18.667" height="18"/>
	</g>
	<g>
		<rect x="42.667" y="168.167" fill="#00FF00" width="74" height="36"/>
		<rect x="52.667" y="159.167" fill="#00FF00" width="18.667" height="18"/>
		<rect x="89.333" y="158.167" fill="#00FF00" width="18.667" height="18"/>
	</g>
</g>
<g id="Layer_3">
	<g>
		<path fill="#426DB5" d="M752.067,337.364l-2.727,13.718l-8.37,14.267c0,0-3.926,5.229-10.439,4.145l7.974-33.683L752.067,337.364z
			"/>
		<g id="cuffs_1_">
			<g>
				<path fill="#32558E" d="M752.06,337.437c-0.172,1.009-3.355,1.493-7.109,1.079c-3.755-0.413-6.658-1.566-6.487-2.575
					c0.172-1.009,3.354-1.492,7.109-1.079C749.327,335.276,752.232,336.429,752.06,337.437z"/>
			</g>
		</g>
		<g id="arm_2_">
			<g>
				
					<linearGradient id="SVGID_1_" gradientUnits="userSpaceOnUse" x1="732.1265" y1="-145.9255" x2="720.4437" y2="-149.5174" gradientTransform="matrix(1 0 0 -0.8627 19.54 206.4108)">
					<stop  offset="0" style="stop-color:#FFEF00"/>
					<stop  offset="1" style="stop-color:#E7D31B"/>
				</linearGradient>
				<path fill="url(#SVGID_1_)" d="M750.295,337.59c0,0-5.182,1.521-9.954-1.189l0.693-6.211l10.349,1.312L750.295,337.59z"/>
			</g>
		</g>
		<g>
			
				<linearGradient id="SVGID_2_" gradientUnits="userSpaceOnUse" x1="736.9657" y1="-135.8448" x2="719.2935" y2="-141.2781" gradientTransform="matrix(1 0 0 -0.8627 19.54 206.4108)">
				<stop  offset="0" style="stop-color:#FFEF00"/>
				<stop  offset="1" style="stop-color:#E7D31B"/>
			</linearGradient>
			<path fill="url(#SVGID_2_)" d="M746.373,333.708c-5.058-0.595-8.6-4.614-7.91-8.978c0.381-2.418,1.983-4.432,4.194-5.648
				c0.122-0.012,1.161-0.214,1.702,0.064c1.7,0.874-0.28,3.014-1.061,4.822c-0.323,0.467-0.544,0.997-0.634,1.57
				c-0.361,2.284,1.492,4.388,4.14,4.699c0.038,0.005,0.076,0.007,0.114,0.011c0.038,0.005,0.076,0.012,0.114,0.016
				c2.648,0.311,5.086-1.288,5.447-3.571c0.091-0.573,0.042-1.135-0.124-1.66c-0.192-1.922-1.436-4.441,0.472-4.891
				c0.608-0.143,1.547,0.292,1.661,0.332c1.754,1.681,2.671,3.992,2.289,6.409C756.09,331.247,751.431,334.302,746.373,333.708z"/>
		</g>
		<g>
			<path fill="#32558E" d="M746.453,350.437l-7.849-3.625c-0.208-0.096-0.288-0.321-0.175-0.5c0.112-0.18,0.371-0.248,0.58-0.152
				l7.849,3.625c0.209,0.096,0.288,0.321,0.176,0.501C746.921,350.466,746.661,350.533,746.453,350.437"/>
		</g>
	</g>
	<g id="g3415">
		
			<linearGradient id="rect3249_1_" gradientUnits="userSpaceOnUse" x1="832.4329" y1="-141.3782" x2="819.2457" y2="-141.3782" gradientTransform="matrix(1 0 0 -1 -114.2364 174.6437)">
			<stop  offset="0" style="stop-color:#FFEF00"/>
			<stop  offset="0.5689" style="stop-color:#E7D31B"/>
			<stop  offset="0.9515" style="stop-color:#E5BF21"/>
		</linearGradient>
		<rect id="rect3249" x="703.36" y="313.297" fill="url(#rect3249_1_)" width="16.556" height="5.45"/>
		
			<linearGradient id="SVGID_3_" gradientUnits="userSpaceOnUse" x1="710.6544" y1="283.1899" x2="680.3208" y2="272.1494" gradientTransform="matrix(1 0 0 1 19.54 57.34)">
			<stop  offset="0" style="stop-color:#FFEF00"/>
			<stop  offset="0.5689" style="stop-color:#E7D31B"/>
			<stop  offset="0.9515" style="stop-color:#E5BF21"/>
		</linearGradient>
		<path fill="url(#SVGID_3_)" d="M730.156,324.531h-0.013v-0.229c-1.552-4.974-5.76-5.528-10.282-5.553h-3.186h-0.346h-9.572h-0.063
			h-3.533c-4.318,0.073-8.05,0.977-9.42,5.227v0.976h-0.035v18.221h0.035v0.574c1.37,4.25,5.102,5.154,9.42,5.227h3.533h0.063h9.918
			c0.029-0.045,0.054-0.094,0.082-0.14h3.103c4.523-0.024,8.73-0.546,10.282-5.241v-0.139h0.013V324.531L730.156,324.531z"/>
		
			<linearGradient id="rect3253_1_" gradientUnits="userSpaceOnUse" x1="835.3423" y1="-181.2672" x2="814.1442" y2="-173.5517" gradientTransform="matrix(1 0 0 -1 -112.8077 173.217)">
			<stop  offset="0" style="stop-color:#FFEF00"/>
			<stop  offset="0.5689" style="stop-color:#E7D31B"/>
			<stop  offset="0.9515" style="stop-color:#E5BF21"/>
		</linearGradient>
		<rect id="rect3253" x="700.784" y="348.399" fill="url(#rect3253_1_)" width="22.303" height="4.456"/>
	</g>
	<g>
		<circle fill="#3B3939" cx="705.709" cy="330.859" r="2.422"/>
		<circle fill="#3B3939" cx="718.293" cy="330.859" r="2.422"/>
		<path fill="#3B3939" d="M717.102,338.476c-0.829,0.387-1.652,0.74-2.509,0.994c-0.857,0.254-1.748,0.412-2.727,0.412
			c-0.72,0-1.489-0.085-2.331-0.288c-0.842-0.202-1.756-0.522-2.761-0.991c-0.356-0.167-0.78-0.013-0.946,0.343
			s-0.013,0.78,0.343,0.946c1.081,0.505,2.086,0.859,3.032,1.086c0.945,0.227,1.831,0.327,2.664,0.327
			c1.134,0,2.17-0.185,3.132-0.471c0.962-0.286,1.851-0.67,2.706-1.069c0.356-0.166,0.51-0.59,0.344-0.946
			C717.882,338.464,717.458,338.31,717.102,338.476z"/>
	</g>
	
		<linearGradient id="SVGID_4_" gradientUnits="userSpaceOnUse" x1="692.6038" y1="400.3634" x2="692.6038" y2="341.6116" gradientTransform="matrix(1 0 0 1 19.54 57.34)">
		<stop  offset="0" style="stop-color:#446DB5"/>
		<stop  offset="0.6061" style="stop-color:#446DB5"/>
		<stop  offset="0.7636" style="stop-color:#628DAD"/>
		<stop  offset="0.903" style="stop-color:#6795B6"/>
	</linearGradient>
	<path fill="url(#SVGID_4_)" d="M731.077,398.952h-17.76h-29.683v19.087v4.43v21.189v0.444v13.603h27.336V444.1v-0.444v-20.413
		c0.351,0.108,0.724,0.168,1.113,0.168c0.434,0,0.848-0.076,1.233-0.208v20.454v0.444v13.603h27.336V444.1v-0.444v-21.189v-6.217
		v-17.299H731.077L731.077,398.952z"/>
	<path fill="#0000FF" d="M741.182,398.952l-8.864-43.295c0-1.762-1.584-3.213-3.622-3.407l-0.005-0.024l-0.023,0.02
		c-0.144-0.013-0.29-0.02-0.438-0.02h-32.532c-0.071,0-0.14,0.006-0.209,0.009l-0.01-0.009l-0.002,0.009
		c-2.154,0.097-3.867,1.59-3.867,3.422l-8.586,43.295L741.182,398.952L741.182,398.952z"/>
	<path fill="#426DB5" d="M683.705,394.861l7.974-39.044c-6.513-1.257-10.439,4.804-10.439,4.804l-8.37,16.538l-2.727,15.902
		L683.705,394.861z"/>
	<g id="cuffs_2_">
		<g>
			<path fill="#32558E" d="M677.259,391.724c-3.755-0.479-6.938,0.081-7.109,1.251c-0.172,1.169,2.733,2.506,6.487,2.985
				c3.755,0.479,6.938-0.081,7.109-1.251C683.918,393.539,681.014,392.203,677.259,391.724z"/>
		</g>
	</g>
	<g id="arm_3_">
		<g>
			
				<linearGradient id="SVGID_5_" gradientUnits="userSpaceOnUse" x1="662.5095" y1="341.195" x2="651.6387" y2="337.8528" gradientTransform="matrix(1 0 0 1 19.54 57.34)">
				<stop  offset="0" style="stop-color:#FFEF00"/>
				<stop  offset="1" style="stop-color:#E7D31B"/>
			</linearGradient>
			<path fill="url(#SVGID_5_)" d="M671.915,392.799l-1.087,7.057l10.349,1.521l0.693-7.199
				C677.097,391.035,671.915,392.799,671.915,392.799z"/>
		</g>
	</g>
	<g>
		
			<linearGradient id="SVGID_6_" gradientUnits="userSpaceOnUse" x1="664.0681" y1="351.2389" x2="646.3964" y2="345.8058" gradientTransform="matrix(1 0 0 1 19.54 57.34)">
			<stop  offset="0" style="stop-color:#FFEF00"/>
			<stop  offset="1" style="stop-color:#E7D31B"/>
		</linearGradient>
		<path fill="url(#SVGID_6_)" d="M675.837,397.299c5.058,0.689,8.6,5.349,7.91,10.407c-0.381,2.803-1.983,5.137-4.194,6.547
			c-0.122,0.014-1.161,0.248-1.702-0.074c-1.7-1.013,0.28-3.494,1.061-5.59c0.323-0.542,0.544-1.156,0.634-1.819
			c0.361-2.647-1.492-5.086-4.14-5.448c-0.038-0.005-0.076-0.008-0.115-0.012c-0.038-0.006-0.076-0.013-0.114-0.018
			c-2.648-0.361-5.086,1.493-5.447,4.14c-0.091,0.664-0.042,1.316,0.124,1.924c0.192,2.228,1.436,5.148-0.472,5.67
			c-0.608,0.166-1.547-0.338-1.661-0.385c-1.754-1.949-2.671-4.628-2.289-7.429C666.12,400.152,670.779,396.609,675.837,397.299z"/>
	</g>
	<g>
		<path fill="#32558E" d="M684.083,381.128l-8.522-2.579c-0.227-0.069-0.466,0.059-0.535,0.286s0.059,0.466,0.286,0.535l8.522,2.579
			c0.227,0.069,0.466-0.059,0.535-0.286C684.438,381.436,684.31,381.196,684.083,381.128"/>
	</g>
	<rect x="683.634" y="449.094" fill="#32558E" width="27.336" height="1.885"/>
	<rect x="713.317" y="449.094" fill="#32558E" width="27.336" height="1.885"/>
	
		<linearGradient id="SVGID_7_" gradientUnits="userSpaceOnUse" x1="677.738" y1="364.5692" x2="677.738" y2="373.8671" gradientTransform="matrix(1 0 0 1 19.54 57.34)">
		<stop  offset="0" style="stop-color:#000000;stop-opacity:0.57"/>
		<stop  offset="1" style="stop-color:#000000;stop-opacity:0"/>
	</linearGradient>
	<rect x="683.585" y="421.909" fill="url(#SVGID_7_)" width="27.386" height="9.298"/>
	
		<linearGradient id="SVGID_8_" gradientUnits="userSpaceOnUse" x1="707.4207" y1="364.5692" x2="707.4207" y2="373.8671" gradientTransform="matrix(1 0 0 1 19.54 57.34)">
		<stop  offset="0" style="stop-color:#000000;stop-opacity:0.57"/>
		<stop  offset="1" style="stop-color:#000000;stop-opacity:0"/>
	</linearGradient>
	<rect x="713.268" y="421.909" fill="url(#SVGID_8_)" width="27.386" height="9.298"/>
	<path fill="#32558E" d="M738.278,398.952h-52.161h-2.531v7.512h2.531h22.993v17.519c0,1.684,1.382,3.049,3.087,3.049
		c1.706,0,3.088-1.364,3.088-3.049v-17.519h22.992h2.511v-7.512H738.278z"/>
	
		<linearGradient id="SVGID_9_" gradientUnits="userSpaceOnUse" x1="128.3828" y1="311.9572" x2="128.3828" y2="321.2548" gradientTransform="matrix(-1 0 0 -1 855.3682 761.0509)">
		<stop  offset="0" style="stop-color:#FFFFFF;stop-opacity:0.57"/>
		<stop  offset="0.0899" style="stop-color:#E0E1E2;stop-opacity:0.5187"/>
		<stop  offset="0.2821" style="stop-color:#A9ABAD;stop-opacity:0.4092"/>
		<stop  offset="0.4649" style="stop-color:#7F8083;stop-opacity:0.305"/>
		<stop  offset="0.6331" style="stop-color:#5D5E60;stop-opacity:0.2091"/>
		<stop  offset="0.7835" style="stop-color:#414042;stop-opacity:0.1234"/>
		<stop  offset="0.9109" style="stop-color:#19191A;stop-opacity:0.0508"/>
		<stop  offset="1" style="stop-color:#000000;stop-opacity:0"/>
	</linearGradient>
	<rect x="713.317" y="439.796" opacity="0.45" fill="url(#SVGID_9_)" enable-background="new    " width="27.336" height="9.298"/>
	
		<linearGradient id="SVGID_10_" gradientUnits="userSpaceOnUse" x1="158.0655" y1="311.9572" x2="158.0655" y2="321.2548" gradientTransform="matrix(-1 0 0 -1 855.3682 761.0509)">
		<stop  offset="0" style="stop-color:#FFFFFF;stop-opacity:0.57"/>
		<stop  offset="0.0899" style="stop-color:#E0E1E2;stop-opacity:0.5187"/>
		<stop  offset="0.2821" style="stop-color:#A9ABAD;stop-opacity:0.4092"/>
		<stop  offset="0.4649" style="stop-color:#7F8083;stop-opacity:0.305"/>
		<stop  offset="0.6331" style="stop-color:#5D5E60;stop-opacity:0.2091"/>
		<stop  offset="0.7835" style="stop-color:#414042;stop-opacity:0.1234"/>
		<stop  offset="0.9109" style="stop-color:#19191A;stop-opacity:0.0508"/>
		<stop  offset="1" style="stop-color:#000000;stop-opacity:0"/>
	</linearGradient>
	<rect x="683.634" y="439.796" opacity="0.45" fill="url(#SVGID_10_)" enable-background="new    " width="27.336" height="9.298"/>
	<g>
		
			<rect x="729.143" y="306.652" transform="matrix(0.9337 0.358 -0.358 0.9337 163.4471 -247.945)" fill="#00FF00" width="44.479" height="21.639"/>
		
			<rect x="739.731" y="298.158" transform="matrix(0.9337 0.358 -0.358 0.9337 158.0693 -246.7034)" fill="#00FF00" width="11.22" height="10.819"/>
		
			<rect x="760.524" y="305.487" transform="matrix(0.9337 0.358 -0.358 0.9337 162.0709 -253.6617)" fill="#00FF00" width="11.22" height="10.819"/>
	</g>
</g>
<g id="Layer_5">
	<g>
		<path d="M101.707,100.557l-7.755,7.789H72.553l-7.754-7.743V70.738h-2.916V59.776h19.183v10.962h-2.915v25.133l1.574,1.513h7.113
			l1.516-1.513V70.738h-2.916V59.776h19.183v10.962h-2.916V100.557z"/>
		<path d="M137.214,108.345l-13.061-21.748v10.787h2.915v10.961h-19.183V97.384h2.916V70.738h-2.916V59.776h15.801l13.352,22.273
			V70.738h-2.916V59.776h19.183v10.962h-2.916v26.646h2.916v10.961H137.214z"/>
		<path d="M156.571,59.776h30.086l7.755,7.804v33.02l-7.755,7.746h-30.086V97.384h2.916V70.738h-2.916V59.776z M172.839,97.384
			h6.647l1.574-1.513V72.308l-1.574-1.57h-6.647V97.384z"/>
		<path d="M214.236,97.384h8.513v-1.924h10.961v12.886h-35.742V97.384h2.916V70.738h-2.916V59.776h35.742v12.828h-10.961v-1.866
			h-8.513v7.813h1.982v-1.866h10.903v14.751h-10.903v-1.924h-1.982V97.384z"/>
		<path d="M253.242,97.384h2.915v10.961h-19.183V97.384h2.916V70.738h-2.916V59.776h30.086l7.755,7.794v12.388l-3.207,3.199
			l3.207,3.149v11.078h2.916v10.961h-16.268V90.27l-1.574-1.574h-6.647V97.384z M253.242,77.734h6.647l1.574-1.562v-3.874
			l-1.574-1.562h-6.647V77.734z"/>
		<path d="M334.52,78.434h-13.352V72.3l-1.516-1.563h-7.113l-1.574,1.57v23.563l1.574,1.513h7.113l1.516-1.516v-5.831h13.352v10.553
			l-7.754,7.755h-21.398l-7.755-7.746V67.58l7.755-7.804h21.398l7.754,7.789V78.434z"/>
		<path d="M338.078,67.58l7.754-7.804h21.398l7.755,7.804v33.02l-7.755,7.746h-21.398l-7.754-7.746V67.58z M361.633,72.308
			l-1.517-1.57h-7.113l-1.574,1.57v23.563l1.574,1.513h7.113l1.517-1.513V72.308z"/>
		<path d="M407.869,108.345l-13.062-21.748v10.787h2.916v10.961h-19.183V97.384h2.915V70.738h-2.915V59.776h15.801l13.352,22.273
			V70.738h-2.915V59.776h19.183v10.962h-2.915v26.646h2.915v10.961H407.869z"/>
		<path d="M449.322,89.629h-14.285l-7.754-7.739V67.574l7.754-7.798h21.398l7.755,7.787v9.531h-13.352v-4.796l-1.517-1.56h-7.113
			l-1.574,1.563v4.862l1.574,1.505h14.227l7.755,7.813v14.11l-7.755,7.755h-21.398l-7.754-7.755v-9.329h13.351v4.548l1.574,1.574
			h7.113l1.517-1.516v-4.665L449.322,89.629z"/>
		<path d="M508.503,73.595H497.6v-2.857h-2.915v26.646h2.915v10.961h-19.24V97.384h2.974V70.738h-2.974v2.857h-10.903V59.776h41.047
			V73.595z"/>
		<path d="M527.219,97.384h2.916v10.961h-19.183V97.384h2.915V70.738h-2.915V59.776h30.086l7.755,7.794v12.388l-3.207,3.199
			l3.207,3.149v11.078h2.915v10.961H535.44V90.27l-1.574-1.574h-6.647V97.384z M527.219,77.734h6.647l1.574-1.562v-3.874
			l-1.574-1.562h-6.647V77.734z"/>
		<path d="M594.738,100.557l-7.755,7.789h-21.398l-7.755-7.743V70.738h-2.915V59.776h19.183v10.962h-2.916v25.133l1.575,1.513h7.113
			l1.516-1.513V70.738h-2.915V59.776h19.183v10.962h-2.915V100.557z"/>
		<path d="M637.825,78.434h-13.352V72.3l-1.517-1.563h-7.113l-1.574,1.57v23.563l1.574,1.513h7.113l1.517-1.516v-5.831h13.352
			v10.553l-7.755,7.755h-21.398l-7.754-7.746V67.58l7.754-7.804h21.398l7.755,7.789V78.434z"/>
		<path d="M682.428,73.595h-10.903v-2.857h-2.915v26.646h2.915v10.961h-19.24V97.384h2.974V70.738h-2.974v2.857h-10.903V59.776
			h41.047V73.595z"/>
		<path d="M704.06,108.345h-19.183V97.384h2.915V70.738h-2.915V59.776h19.183v10.962h-2.916v26.646h2.916V108.345z"/>
		<path d="M707.324,67.58l7.754-7.804h21.398l7.755,7.804v33.02l-7.755,7.746h-21.398l-7.754-7.746V67.58z M730.88,72.308
			l-1.517-1.57h-7.113l-1.574,1.57v23.563l1.574,1.513h7.113l1.517-1.513V72.308z"/>
		<path d="M777.116,108.345l-13.062-21.748v10.787h2.916v10.961h-19.183V97.384h2.915V70.738h-2.915V59.776h15.801l13.352,22.273
			V70.738h-2.915V59.776h19.183v10.962h-2.915v26.646h2.915v10.961H777.116z"/>
	</g>
	<g>
		<path d="M643.06,131.068h-2.195v-0.999l-0.265-0.261h-1.164l-0.264,0.263v3.865l0.264,0.264h1.164l0.265-0.264v-0.96h2.195v1.74
			L641.776,136h-3.517l-1.284-1.282v-5.428l1.284-1.282h3.517l1.283,1.279V131.068z"/>
		<path d="M647.955,134.2v-1.332h-1.571v1.332h0.479v1.8h-3.156v-1.8h0.48v-4.392h-0.48v-1.8h3.156v1.8h-0.479v1.092h1.571v-1.092
			h-0.491v-1.8h3.168v1.8h-0.48v4.392h0.48v1.8h-3.168v-1.8H647.955z"/>
		<path d="M653.98,134.2h1.403v-0.324h1.801V136h-5.881v-1.8h0.48v-4.392h-0.48v-1.8h5.881v2.124h-1.801v-0.324h-1.403v1.296h0.323
			v-0.312h1.801v2.436h-1.801v-0.324h-0.323V134.2z"/>
		<path d="M663.939,131.068h-2.195v-0.999l-0.265-0.261h-1.164l-0.264,0.263v3.865l0.264,0.264h1.164l0.265-0.264v-0.96h2.195v1.74
			L662.656,136h-3.517l-1.284-1.282v-5.428l1.284-1.282h3.517l1.283,1.279V131.068z"/>
		<path d="M667.264,134.2h0.479v1.8h-3.156v-1.8h0.48v-4.392h-0.48v-1.8h3.156v1.8h-0.479v1.14l1.14-1.14h-0.204v-1.8h3.804v1.8
			h-0.659l-2.173,2.166l2.232,2.226h0.6v1.8h-3.804v-1.8h0.216l-0.768-0.768l-0.384,0.372V134.2z"/>
		<path d="M682.323,132.376v2.34L681.051,136h-4.956v-1.8h0.48v-4.392h-0.48v-1.8h4.956l1.272,1.28v2.045l-0.528,0.526
			L682.323,132.376z M680.127,130.069l-0.252-0.261h-1.104v1.152h1.104l0.252-0.261V130.069z M680.127,133.024l-0.252-0.264h-1.104
			v1.44h1.104l0.252-0.264V133.024z"/>
		<path d="M689.127,128.008v1.8h-0.408l1.764,4.392h0.48v1.8h-3.084v-1.8h0.276l-0.12-0.372h-2.124l-0.132,0.372h0.264v1.8h-3.061
			v-1.8h0.48l1.764-4.392h-0.348v-1.8H689.127z M686.451,132.292h1.031l-0.516-1.248L686.451,132.292z"/>
		<path d="M697.539,131.068h-2.195v-0.999l-0.265-0.261h-1.164l-0.264,0.263v3.865l0.264,0.264h1.164l0.265-0.264v-0.96h2.195v1.74
			L696.256,136h-3.517l-1.284-1.282v-5.428l1.284-1.282h3.517l1.283,1.279V131.068z"/>
		<path d="M700.863,134.2h0.479v1.8h-3.156v-1.8h0.48v-4.392h-0.48v-1.8h3.156v1.8h-0.479v1.14l1.14-1.14h-0.204v-1.8h3.804v1.8
			h-0.659l-2.173,2.166l2.232,2.226h0.6v1.8h-3.804v-1.8h0.216l-0.768-0.768l-0.384,0.372V134.2z"/>
		<path d="M712.371,129.808v4.392h1.439v-0.48h1.8V136h-5.916v-1.8h0.48v-4.392h-0.48v-1.8h3.156v1.8H712.371z"/>
		<path d="M722.331,128.008v1.8h-0.408l1.764,4.392h0.48v1.8h-3.084v-1.8h0.276l-0.12-0.372h-2.124l-0.132,0.372h0.264v1.8h-3.061
			v-1.8h0.48l1.764-4.392h-0.348v-1.8H722.331z M719.655,132.292h1.031l-0.516-1.248L719.655,132.292z"/>
		<path d="M731.427,130.3h-1.8v-0.48l-0.492-0.012v4.392h0.492v1.8h-3.168v-1.8h0.479v-4.392h-0.479v0.492h-1.801v-2.292h6.769
			V130.3z"/>
		<path d="M734.583,134.2h1.403v-0.324h1.801V136h-5.881v-1.8h0.48v-4.392h-0.48v-1.8h5.881v2.124h-1.801v-0.324h-1.403v1.296h0.323
			v-0.312h1.801v2.436h-1.801v-0.324h-0.323V134.2z"/>
		<path d="M741.135,134.2h0.479v1.8h-3.156v-1.8h0.48v-4.392h-0.48v-1.8h4.956l1.272,1.28v2.045l-0.528,0.526l0.528,0.516v1.824
			h0.479v1.8h-2.676v-2.976l-0.252-0.264h-1.104V134.2z M741.135,130.96h1.104l0.252-0.261v-0.629l-0.252-0.261h-1.104V130.96z"/>
	</g>
</g>
</svg>
